M48
; DRILL file {KiCad 9.0.2} date 2025-10-22T08:39:08+0700
; FORMAT={-:-/ absolute / metric / decimal}
; #@! TF.CreationDate,2025-10-22T08:39:08+07:00
; #@! TF.GenerationSoftware,Kicad,Pcbnew,9.0.2
; #@! TF.FileFunction,MixedPlating,1,2
FMAT,2
METRIC
; #@! TA.AperFunction,Plated,PTH,ViaDrill
T1C0.300
; #@! TA.AperFunction,Plated,PTH,ViaDrill
T2C0.400
; #@! TA.AperFunction,Plated,PTH,ViaDrill
T3C0.500
; #@! TA.AperFunction,Plated,PTH,ViaDrill
T4C0.600
; #@! TA.AperFunction,Plated,PTH,ComponentDrill
T5C0.750
; #@! TA.AperFunction,Plated,PTH,ViaDrill
T6C0.800
; #@! TA.AperFunction,Plated,PTH,ComponentDrill
T7C0.800
; #@! TA.AperFunction,Plated,PTH,ComponentDrill
T8C0.950
; #@! TA.AperFunction,Plated,PTH,ViaDrill
T9C1.000
; #@! TA.AperFunction,Plated,PTH,ComponentDrill
T10C1.000
; #@! TA.AperFunction,Plated,PTH,ComponentDrill
T11C1.295
; #@! TA.AperFunction,Plated,PTH,ViaDrill
T12C1.400
; #@! TA.AperFunction,Plated,PTH,ViaDrill
T13C1.500
; #@! TA.AperFunction,Plated,PTH,ComponentDrill
T14C1.500
; #@! TA.AperFunction,Plated,PTH,ViaDrill
T15C1.600
; #@! TA.AperFunction,Plated,PTH,ComponentDrill
T16C1.700
; #@! TA.AperFunction,Plated,PTH,ComponentDrill
T17C1.800
; #@! TA.AperFunction,Plated,PTH,ViaDrill
T18C4.000
; #@! TA.AperFunction,NonPlated,NPTH,ComponentDrill
T19C1.200
; #@! TA.AperFunction,NonPlated,NPTH,ComponentDrill
T20C3.000
%
G90
G05
T1
X130.1Y-136.9
X130.2Y-138.5
X135.5Y-138.8
X136.2Y-134.2
X137.0Y-132.5
X152.8Y-132.8
X154.6Y-139.9
X166.7Y-123.9
X167.5Y-124.1
X167.9Y-131.5
X168.4Y-124.9
X169.3Y-131.718
X171.2Y-131.973
X172.8Y-131.5
X178.4Y-109.7
X182.6Y-132.3
X182.9Y-131.0
X183.9Y-113.7
X184.0Y-105.3
X184.3Y-140.951
X184.6Y-113.1
X184.9Y-110.1
X185.4Y-112.9
X185.625Y-132.4
X185.9Y-140.8
X186.9Y-133.4
X187.2Y-132.2
X187.5Y-140.5
X187.566Y-133.844
X188.177Y-136.358
X188.4Y-123.9
X188.973Y-136.973
X189.8Y-110.5
X189.909Y-137.479
X190.5Y-121.0
X190.628Y-132.9
X190.65Y-119.25
X190.797Y-121.9
X191.1Y-137.934
X191.2Y-114.101
X191.2Y-132.0
X191.3Y-110.3
X191.4Y-119.6
X192.0Y-115.1
X192.066Y-119.156
X192.163Y-132.502
X192.3Y-111.8
X192.792Y-132.008
X192.866Y-119.142
X193.273Y-122.6
X193.4Y-133.3
X193.6Y-138.3
X193.8Y-120.6
X195.0Y-114.7
X195.4Y-133.2
X195.5Y-136.2
X196.028Y-111.779
X196.3Y-130.6
X196.7Y-119.7
X196.824Y-111.698
X196.93Y-123.381
X197.2Y-137.3
X197.3Y-115.3
X197.3Y-120.4
X197.8Y-136.2
X198.1Y-115.9
X198.2Y-124.899
X198.3Y-111.8
X200.4Y-130.8
X201.7Y-131.0
X201.8Y-122.3
X202.25Y-128.65
X202.3Y-126.2
X218.1Y-133.0
X218.7Y-117.2
X220.4Y-119.8
T2
X83.8Y-136.0
X86.2Y-134.0
X88.7Y-125.2
X89.8Y-133.9
X92.3Y-133.9
X100.7Y-125.2
X111.8Y-125.2
X128.3Y-119.6
X130.1Y-141.8
X130.3Y-140.2
X130.4Y-119.1
X153.3Y-116.2
X165.4Y-111.8
X178.9Y-123.2
X180.8Y-120.373
X182.452Y-129.127
X183.3Y-128.4
X183.6Y-122.2
X185.028Y-128.827
X185.3Y-127.5
X186.8Y-125.0
X187.761Y-126.611
X189.5Y-104.0
X192.955Y-104.845
X204.0Y-112.6
X208.6Y-120.9
X208.7Y-121.9
X210.5Y-131.5
X211.5Y-121.6
X212.242Y-122.327
X212.6Y-124.098
X212.973Y-123.01
X214.4Y-133.5
T3
X123.3Y-99.0
X123.6Y-105.8
X127.7Y-105.6
T4
X88.2Y-117.0
X97.7Y-128.6
X99.2Y-117.0
X110.0Y-117.0
X126.4Y-120.9
X126.6Y-116.6
T5
X96.03Y-132.4
X97.3Y-132.4
X98.57Y-132.4
T6
X83.7Y-118.7
X135.9Y-124.2
X159.049Y-106.7
X203.5Y-117.9
X217.0Y-117.4
X224.0Y-102.8
X226.0Y-105.5
T7
X79.3Y-84.95
X79.3Y-94.95
X83.1Y-72.1
X93.1Y-72.1
X95.3Y-72.2
X105.3Y-72.2
X107.5Y-72.3
X117.5Y-72.3
X119.7Y-72.2
X129.7Y-72.2
X132.0Y-72.1
X142.0Y-72.1
X144.3Y-72.2
X146.5Y-78.0
X151.3Y-85.0
X154.3Y-72.2
X156.5Y-78.0
X156.7Y-72.1
X158.8Y-78.0
X161.3Y-85.0
X166.7Y-72.1
X168.8Y-78.0
X169.5Y-72.1
X179.5Y-72.1
X184.58Y-101.6
X187.12Y-101.6
X189.66Y-101.6
X190.9Y-58.35
X190.9Y-63.35
X192.2Y-101.6
X194.74Y-101.6
X197.28Y-101.6
T8
X90.1Y-141.3
X92.6Y-141.3
X95.1Y-141.3
X97.6Y-141.3
X110.9Y-141.3
X112.9Y-133.6
X113.4Y-141.3
X115.4Y-133.6
X115.9Y-141.3
X117.9Y-133.6
X118.4Y-141.3
X120.4Y-133.6
X120.9Y-141.3
X202.3Y-141.3
X204.8Y-141.3
X207.3Y-141.3
X209.8Y-141.3
X223.1Y-121.8
X223.1Y-124.3
X223.1Y-126.8
X223.1Y-129.3
T9
X88.6Y-91.8
X92.238Y-109.885
X94.6Y-116.8
X103.126Y-109.885
X105.4Y-116.8
X114.014Y-109.885
X116.3Y-117.0
X127.9Y-95.7
X133.3Y-124.5
X136.9Y-91.0
X161.5Y-101.1
X169.8Y-104.6
X177.5Y-91.3
T10
X138.38Y-142.5
X140.92Y-142.5
X143.46Y-142.5
X146.0Y-142.5
X146.19Y-112.0
X148.54Y-142.5
X148.73Y-112.0
X151.08Y-142.5
X151.27Y-112.0
X153.81Y-112.0
X159.32Y-136.9
X159.32Y-139.44
X161.86Y-136.9
X161.86Y-139.44
X164.4Y-136.9
X164.4Y-139.44
X166.94Y-136.9
X166.94Y-139.44
X169.48Y-136.9
X169.48Y-139.44
X180.6Y-101.02
X180.6Y-103.56
X180.6Y-106.1
X180.6Y-108.64
X200.8Y-116.435
X200.8Y-118.975
X201.9Y-62.532
X201.9Y-67.532
X206.3Y-121.28
X206.3Y-123.82
X206.3Y-126.36
X206.3Y-128.9
X206.3Y-131.44
X206.3Y-133.98
X212.6Y-58.282
X212.6Y-63.282
T11
X97.29Y-77.26
X97.29Y-92.5
X104.91Y-79.8
X104.91Y-92.5
X122.4Y-77.26
X122.4Y-92.5
X130.02Y-79.8
X130.02Y-92.5
T12
X172.4Y-80.5
X183.9Y-80.9
T13
X79.5Y-102.1
X166.4Y-97.7
T14
X85.086Y-76.836
X85.086Y-81.836
X85.086Y-86.836
X85.086Y-101.836
X92.586Y-76.836
X92.586Y-81.836
X92.586Y-86.836
X92.586Y-101.836
X109.987Y-76.737
X109.987Y-81.737
X109.987Y-86.737
X109.987Y-101.737
X117.487Y-76.737
X117.487Y-81.737
X117.487Y-86.737
X117.487Y-101.737
X134.887Y-76.737
X134.887Y-81.737
X134.887Y-86.737
X134.887Y-101.737
X142.387Y-76.737
X142.387Y-81.737
X142.387Y-86.737
X142.387Y-101.737
X176.7Y-113.4
X176.7Y-118.3
T15
X184.1Y-68.1
T16
X90.642Y-59.45
X94.602Y-59.45
X120.542Y-59.45
X124.502Y-59.45
X129.94Y-59.5
X133.9Y-59.5
X156.54Y-59.45
X160.5Y-59.45
X164.46Y-59.45
X168.42Y-59.45
X181.542Y-59.45
X185.502Y-59.45
T17
X207.1Y-90.0
X207.1Y-94.2
X207.1Y-98.4
X207.1Y-102.6
X207.1Y-106.8
X207.1Y-111.0
X212.6Y-90.0
X212.6Y-94.2
X212.6Y-98.4
X212.6Y-102.6
X212.6Y-106.8
X212.6Y-111.0
T18
X81.0Y-60.25
X81.0Y-139.25
X222.0Y-60.25
X222.0Y-139.25
T19
X99.2Y-139.3
X122.0Y-131.6
X211.4Y-139.3
X225.1Y-130.9
T20
X219.9Y-90.0
X219.9Y-111.0
M30
