%TF.GenerationSoftware,KiCad,Pcbnew,9.0.2*%
%TF.CreationDate,2025-10-22T08:39:05+07:00*%
%TF.ProjectId,MassageChair_HW_01_update,4d617373-6167-4654-9368-6169725f4857,rev?*%
%TF.SameCoordinates,Original*%
%TF.FileFunction,Soldermask,Bot*%
%TF.FilePolarity,Negative*%
%FSLAX46Y46*%
G04 Gerber Fmt 4.6, Leading zero omitted, Abs format (unit mm)*
G04 Created by KiCad (PCBNEW 9.0.2) date 2025-10-22 08:39:05*
%MOMM*%
%LPD*%
G01*
G04 APERTURE LIST*
G04 Aperture macros list*
%AMRoundRect*
0 Rectangle with rounded corners*
0 $1 Rounding radius*
0 $2 $3 $4 $5 $6 $7 $8 $9 X,Y pos of 4 corners*
0 Add a 4 corners polygon primitive as box body*
4,1,4,$2,$3,$4,$5,$6,$7,$8,$9,$2,$3,0*
0 Add four circle primitives for the rounded corners*
1,1,$1+$1,$2,$3*
1,1,$1+$1,$4,$5*
1,1,$1+$1,$6,$7*
1,1,$1+$1,$8,$9*
0 Add four rect primitives between the rounded corners*
20,1,$1+$1,$2,$3,$4,$5,0*
20,1,$1+$1,$4,$5,$6,$7,0*
20,1,$1+$1,$6,$7,$8,$9,0*
20,1,$1+$1,$8,$9,$2,$3,0*%
G04 Aperture macros list end*
%ADD10R,2.500000X2.500000*%
%ADD11O,2.500000X2.500000*%
%ADD12C,1.600000*%
%ADD13RoundRect,0.250001X-1.099999X-1.099999X1.099999X-1.099999X1.099999X1.099999X-1.099999X1.099999X0*%
%ADD14C,2.700000*%
%ADD15R,1.700000X1.700000*%
%ADD16C,1.700000*%
%ADD17C,2.006600*%
%ADD18RoundRect,0.250000X-0.750000X0.750000X-0.750000X-0.750000X0.750000X-0.750000X0.750000X0.750000X0*%
%ADD19C,2.000000*%
%ADD20C,1.200000*%
%ADD21RoundRect,0.250000X0.600000X0.725000X-0.600000X0.725000X-0.600000X-0.725000X0.600000X-0.725000X0*%
%ADD22O,1.700000X1.950000*%
%ADD23C,3.000000*%
%ADD24RoundRect,0.250001X-1.599999X1.099999X-1.599999X-1.099999X1.599999X-1.099999X1.599999X1.099999X0*%
%ADD25O,3.700000X2.700000*%
%ADD26RoundRect,0.102000X0.654000X-0.654000X0.654000X0.654000X-0.654000X0.654000X-0.654000X-0.654000X0*%
%ADD27C,1.512000*%
%ADD28RoundRect,0.250000X0.725000X-0.600000X0.725000X0.600000X-0.725000X0.600000X-0.725000X-0.600000X0*%
%ADD29O,1.950000X1.700000*%
%ADD30C,2.300000*%
%ADD31R,1.050000X1.500000*%
%ADD32O,1.050000X1.500000*%
%ADD33RoundRect,0.250000X0.600000X-0.600000X0.600000X0.600000X-0.600000X0.600000X-0.600000X-0.600000X0*%
%TA.AperFunction,Profile*%
%ADD34C,0.050000*%
%TD*%
G04 APERTURE END LIST*
D10*
%TO.C,RL3*%
X142387500Y-101737500D03*
D11*
X142387500Y-86737500D03*
X142387500Y-81737500D03*
X142387500Y-76737500D03*
X134887500Y-76737500D03*
X134887500Y-81737500D03*
X134887500Y-86737500D03*
X134887500Y-101737500D03*
%TD*%
D12*
%TO.C,C11*%
X79300000Y-84950000D03*
X79300000Y-94950000D03*
%TD*%
%TO.C,C14*%
X107500000Y-72300000D03*
X117500000Y-72300000D03*
%TD*%
%TO.C,C16*%
X156500000Y-78000000D03*
X146500000Y-78000000D03*
%TD*%
D13*
%TO.C,J3*%
X120542500Y-59450000D03*
D14*
X124502500Y-59450000D03*
%TD*%
D15*
%TO.C,J13*%
X180600000Y-101020000D03*
D16*
X180600000Y-103560000D03*
X180600000Y-106100000D03*
X180600000Y-108640000D03*
%TD*%
D12*
%TO.C,C19*%
X156700000Y-72100000D03*
X166700000Y-72100000D03*
%TD*%
D10*
%TO.C,RL1*%
X92586250Y-101836250D03*
D11*
X92586250Y-86836250D03*
X92586250Y-81836250D03*
X92586250Y-76836250D03*
X85086250Y-76836250D03*
X85086250Y-81836250D03*
X85086250Y-86836250D03*
X85086250Y-101836250D03*
%TD*%
D13*
%TO.C,J2*%
X129940000Y-59500000D03*
D14*
X133900000Y-59500000D03*
%TD*%
D17*
%TO.C,U3*%
X104910000Y-92500000D03*
X104910000Y-79800000D03*
X97290000Y-77260000D03*
X97290000Y-92500000D03*
%TD*%
D18*
%TO.C,C3*%
X201900000Y-62532323D03*
D19*
X201900000Y-67532323D03*
%TD*%
D20*
%TO.C,J9*%
X211400000Y-139300000D03*
D21*
X209800000Y-141300000D03*
D22*
X207300000Y-141300000D03*
X204800000Y-141300000D03*
X202300000Y-141300000D03*
%TD*%
D21*
%TO.C,J11*%
X120900000Y-141300000D03*
D22*
X118400000Y-141300000D03*
X115900000Y-141300000D03*
X113400000Y-141300000D03*
X110900000Y-141300000D03*
%TD*%
D23*
%TO.C,J12*%
X219900000Y-90000000D03*
X219900000Y-111000000D03*
D24*
X212600000Y-90000000D03*
D25*
X212600000Y-94200000D03*
X212600000Y-98400000D03*
X212600000Y-102600000D03*
X212600000Y-106800000D03*
X212600000Y-111000000D03*
X207100000Y-90000000D03*
X207100000Y-94200000D03*
X207100000Y-98400000D03*
X207100000Y-102600000D03*
X207100000Y-106800000D03*
X207100000Y-111000000D03*
%TD*%
D26*
%TO.C,U9*%
X184580000Y-101600000D03*
D27*
X189660000Y-101600000D03*
X194740000Y-101600000D03*
X197280000Y-101600000D03*
X192200000Y-101600000D03*
X187120000Y-101600000D03*
%TD*%
D12*
%TO.C,C22*%
X161300000Y-85000000D03*
X151300000Y-85000000D03*
%TD*%
%TO.C,C21*%
X132000000Y-72100000D03*
X142000000Y-72100000D03*
%TD*%
D13*
%TO.C,J1*%
X181542500Y-59450000D03*
D14*
X185502500Y-59450000D03*
%TD*%
D17*
%TO.C,U5*%
X130020000Y-92500000D03*
X130020000Y-79800000D03*
X122400000Y-77260000D03*
X122400000Y-92500000D03*
%TD*%
D10*
%TO.C,RL2*%
X117487500Y-101737500D03*
D11*
X117487500Y-86737500D03*
X117487500Y-81737500D03*
X117487500Y-76737500D03*
X109987500Y-76737500D03*
X109987500Y-81737500D03*
X109987500Y-86737500D03*
X109987500Y-101737500D03*
%TD*%
D13*
%TO.C,J4*%
X90642500Y-59450000D03*
D14*
X94602500Y-59450000D03*
%TD*%
D20*
%TO.C,J8*%
X99200000Y-139300000D03*
D21*
X97600000Y-141300000D03*
D22*
X95100000Y-141300000D03*
X92600000Y-141300000D03*
X90100000Y-141300000D03*
%TD*%
D12*
%TO.C,C20*%
X179500000Y-72100000D03*
X169500000Y-72100000D03*
%TD*%
%TO.C,C1*%
X190900000Y-58350000D03*
X190900000Y-63350000D03*
%TD*%
D15*
%TO.C,J6*%
X200800000Y-118975000D03*
D16*
X200800000Y-116435000D03*
%TD*%
D13*
%TO.C,J5*%
X156540000Y-59450000D03*
D14*
X160500000Y-59450000D03*
X164460000Y-59450000D03*
X168420000Y-59450000D03*
%TD*%
D20*
%TO.C,J10*%
X225100000Y-130900000D03*
D28*
X223100000Y-129300000D03*
D29*
X223100000Y-126800000D03*
X223100000Y-124300000D03*
X223100000Y-121800000D03*
%TD*%
D30*
%TO.C,Y1*%
X176700000Y-113400000D03*
X176700000Y-118300000D03*
%TD*%
D15*
%TO.C,J14*%
X206300000Y-121280000D03*
D16*
X206300000Y-123820000D03*
X206300000Y-126360000D03*
X206300000Y-128900000D03*
X206300000Y-131440000D03*
X206300000Y-133980000D03*
%TD*%
D12*
%TO.C,C23*%
X154300000Y-72200000D03*
X144300000Y-72200000D03*
%TD*%
D15*
%TO.C,J16*%
X146190000Y-112000000D03*
D16*
X148730000Y-112000000D03*
X151270000Y-112000000D03*
X153810000Y-112000000D03*
%TD*%
D31*
%TO.C,U4*%
X96030000Y-132400000D03*
D32*
X97300000Y-132400000D03*
X98570000Y-132400000D03*
%TD*%
D33*
%TO.C,J15*%
X159320000Y-139440000D03*
D16*
X159320000Y-136900000D03*
X161860000Y-139440000D03*
X161860000Y-136900000D03*
X164400000Y-139440000D03*
X164400000Y-136900000D03*
X166940000Y-139440000D03*
X166940000Y-136900000D03*
X169480000Y-139440000D03*
X169480000Y-136900000D03*
%TD*%
D12*
%TO.C,C10*%
X83100000Y-72100000D03*
X93100000Y-72100000D03*
%TD*%
%TO.C,C12*%
X105300000Y-72200000D03*
X95300000Y-72200000D03*
%TD*%
D18*
%TO.C,C2*%
X212600000Y-58282323D03*
D19*
X212600000Y-63282323D03*
%TD*%
D12*
%TO.C,C18*%
X168800000Y-78000000D03*
X158800000Y-78000000D03*
%TD*%
%TO.C,C17*%
X119700000Y-72200000D03*
X129700000Y-72200000D03*
%TD*%
D15*
%TO.C,J17*%
X151080000Y-142500000D03*
D16*
X148540000Y-142500000D03*
X146000000Y-142500000D03*
X143460000Y-142500000D03*
X140920000Y-142500000D03*
X138380000Y-142500000D03*
%TD*%
D20*
%TO.C,J7*%
X122000000Y-131600000D03*
D21*
X120400000Y-133600000D03*
D22*
X117900000Y-133600000D03*
X115400000Y-133600000D03*
X112900000Y-133600000D03*
%TD*%
D34*
X75850000Y-55100000D02*
X227250000Y-55100000D01*
X227250000Y-144600000D01*
X75850000Y-144600000D01*
X75850000Y-55100000D01*
M02*
