%TF.GenerationSoftware,KiCad,Pcbnew,9.0.2*%
%TF.CreationDate,2025-10-22T08:39:05+07:00*%
%TF.ProjectId,MassageChair_HW_01_update,4d617373-6167-4654-9368-6169725f4857,rev?*%
%TF.SameCoordinates,Original*%
%TF.FileFunction,Soldermask,Top*%
%TF.FilePolarity,Negative*%
%FSLAX46Y46*%
G04 Gerber Fmt 4.6, Leading zero omitted, Abs format (unit mm)*
G04 Created by KiCad (PCBNEW 9.0.2) date 2025-10-22 08:39:05*
%MOMM*%
%LPD*%
G01*
G04 APERTURE LIST*
G04 Aperture macros list*
%AMRoundRect*
0 Rectangle with rounded corners*
0 $1 Rounding radius*
0 $2 $3 $4 $5 $6 $7 $8 $9 X,Y pos of 4 corners*
0 Add a 4 corners polygon primitive as box body*
4,1,4,$2,$3,$4,$5,$6,$7,$8,$9,$2,$3,0*
0 Add four circle primitives for the rounded corners*
1,1,$1+$1,$2,$3*
1,1,$1+$1,$4,$5*
1,1,$1+$1,$6,$7*
1,1,$1+$1,$8,$9*
0 Add four rect primitives between the rounded corners*
20,1,$1+$1,$2,$3,$4,$5,0*
20,1,$1+$1,$4,$5,$6,$7,0*
20,1,$1+$1,$6,$7,$8,$9,0*
20,1,$1+$1,$8,$9,$2,$3,0*%
G04 Aperture macros list end*
%ADD10R,2.500000X2.500000*%
%ADD11O,2.500000X2.500000*%
%ADD12RoundRect,0.200000X0.200000X0.275000X-0.200000X0.275000X-0.200000X-0.275000X0.200000X-0.275000X0*%
%ADD13C,1.600000*%
%ADD14R,0.939800X2.489200*%
%ADD15R,5.511800X5.918200*%
%ADD16RoundRect,0.250000X1.000000X0.650000X-1.000000X0.650000X-1.000000X-0.650000X1.000000X-0.650000X0*%
%ADD17RoundRect,0.225000X-0.225000X-0.250000X0.225000X-0.250000X0.225000X0.250000X-0.225000X0.250000X0*%
%ADD18RoundRect,0.250000X1.425000X-0.362500X1.425000X0.362500X-1.425000X0.362500X-1.425000X-0.362500X0*%
%ADD19RoundRect,0.250001X-1.099999X-1.099999X1.099999X-1.099999X1.099999X1.099999X-1.099999X1.099999X0*%
%ADD20C,2.700000*%
%ADD21RoundRect,0.200000X-0.200000X-0.275000X0.200000X-0.275000X0.200000X0.275000X-0.200000X0.275000X0*%
%ADD22R,1.700000X1.700000*%
%ADD23C,1.700000*%
%ADD24RoundRect,0.250000X0.650000X-1.000000X0.650000X1.000000X-0.650000X1.000000X-0.650000X-1.000000X0*%
%ADD25RoundRect,0.225000X0.250000X-0.225000X0.250000X0.225000X-0.250000X0.225000X-0.250000X-0.225000X0*%
%ADD26RoundRect,0.250000X-1.000000X-0.650000X1.000000X-0.650000X1.000000X0.650000X-1.000000X0.650000X0*%
%ADD27RoundRect,0.250000X-0.650000X1.000000X-0.650000X-1.000000X0.650000X-1.000000X0.650000X1.000000X0*%
%ADD28RoundRect,0.250000X0.362500X1.425000X-0.362500X1.425000X-0.362500X-1.425000X0.362500X-1.425000X0*%
%ADD29RoundRect,0.150000X0.587500X0.150000X-0.587500X0.150000X-0.587500X-0.150000X0.587500X-0.150000X0*%
%ADD30RoundRect,0.250000X-0.362500X-1.425000X0.362500X-1.425000X0.362500X1.425000X-0.362500X1.425000X0*%
%ADD31C,2.006600*%
%ADD32RoundRect,0.250000X-0.750000X0.750000X-0.750000X-0.750000X0.750000X-0.750000X0.750000X0.750000X0*%
%ADD33C,2.000000*%
%ADD34RoundRect,0.225000X-0.250000X0.225000X-0.250000X-0.225000X0.250000X-0.225000X0.250000X0.225000X0*%
%ADD35C,1.200000*%
%ADD36RoundRect,0.250000X0.600000X0.725000X-0.600000X0.725000X-0.600000X-0.725000X0.600000X-0.725000X0*%
%ADD37O,1.700000X1.950000*%
%ADD38RoundRect,0.218750X0.218750X0.256250X-0.218750X0.256250X-0.218750X-0.256250X0.218750X-0.256250X0*%
%ADD39RoundRect,0.200000X-0.275000X0.200000X-0.275000X-0.200000X0.275000X-0.200000X0.275000X0.200000X0*%
%ADD40RoundRect,0.150000X0.150000X-0.825000X0.150000X0.825000X-0.150000X0.825000X-0.150000X-0.825000X0*%
%ADD41RoundRect,0.150000X0.150000X-0.587500X0.150000X0.587500X-0.150000X0.587500X-0.150000X-0.587500X0*%
%ADD42RoundRect,0.225000X0.225000X0.250000X-0.225000X0.250000X-0.225000X-0.250000X0.225000X-0.250000X0*%
%ADD43C,3.000000*%
%ADD44RoundRect,0.250001X-1.599999X1.099999X-1.599999X-1.099999X1.599999X-1.099999X1.599999X1.099999X0*%
%ADD45O,3.700000X2.700000*%
%ADD46RoundRect,0.102000X0.654000X-0.654000X0.654000X0.654000X-0.654000X0.654000X-0.654000X-0.654000X0*%
%ADD47C,1.512000*%
%ADD48RoundRect,0.218750X-0.218750X-0.256250X0.218750X-0.256250X0.218750X0.256250X-0.218750X0.256250X0*%
%ADD49RoundRect,0.250001X0.872499X0.944999X-0.872499X0.944999X-0.872499X-0.944999X0.872499X-0.944999X0*%
%ADD50RoundRect,0.200000X0.275000X-0.200000X0.275000X0.200000X-0.275000X0.200000X-0.275000X-0.200000X0*%
%ADD51R,1.400000X1.600000*%
%ADD52RoundRect,0.075000X-0.662500X-0.075000X0.662500X-0.075000X0.662500X0.075000X-0.662500X0.075000X0*%
%ADD53RoundRect,0.075000X-0.075000X-0.662500X0.075000X-0.662500X0.075000X0.662500X-0.075000X0.662500X0*%
%ADD54RoundRect,0.250000X0.725000X-0.600000X0.725000X0.600000X-0.725000X0.600000X-0.725000X-0.600000X0*%
%ADD55O,1.950000X1.700000*%
%ADD56C,2.300000*%
%ADD57RoundRect,0.250000X-1.200000X-2.450000X1.200000X-2.450000X1.200000X2.450000X-1.200000X2.450000X0*%
%ADD58RoundRect,0.250000X-2.050000X-0.300000X2.050000X-0.300000X2.050000X0.300000X-2.050000X0.300000X0*%
%ADD59RoundRect,0.250002X-4.449998X-5.149998X4.449998X-5.149998X4.449998X5.149998X-4.449998X5.149998X0*%
%ADD60RoundRect,0.100000X0.637500X0.100000X-0.637500X0.100000X-0.637500X-0.100000X0.637500X-0.100000X0*%
%ADD61R,1.050000X1.500000*%
%ADD62O,1.050000X1.500000*%
%ADD63RoundRect,0.250000X0.600000X-0.600000X0.600000X0.600000X-0.600000X0.600000X-0.600000X-0.600000X0*%
%ADD64RoundRect,0.250000X-0.275000X-0.700000X0.275000X-0.700000X0.275000X0.700000X-0.275000X0.700000X0*%
%ADD65RoundRect,0.375000X0.625000X0.375000X-0.625000X0.375000X-0.625000X-0.375000X0.625000X-0.375000X0*%
%ADD66RoundRect,0.500000X0.500000X1.400000X-0.500000X1.400000X-0.500000X-1.400000X0.500000X-1.400000X0*%
%TA.AperFunction,Profile*%
%ADD67C,0.050000*%
%TD*%
G04 APERTURE END LIST*
D10*
%TO.C,RL3*%
X142387500Y-101737500D03*
D11*
X142387500Y-86737500D03*
X142387500Y-81737500D03*
X142387500Y-76737500D03*
X134887500Y-76737500D03*
X134887500Y-81737500D03*
X134887500Y-86737500D03*
X134887500Y-101737500D03*
%TD*%
D12*
%TO.C,R33*%
X115025000Y-120100000D03*
X113375000Y-120100000D03*
%TD*%
D13*
%TO.C,C11*%
X79300000Y-84950000D03*
X79300000Y-94950000D03*
%TD*%
D14*
%TO.C,Q9*%
X111728000Y-116806900D03*
X116300000Y-116806900D03*
D15*
X114014000Y-109885400D03*
%TD*%
D13*
%TO.C,C14*%
X107500000Y-72300000D03*
X117500000Y-72300000D03*
%TD*%
%TO.C,C16*%
X156500000Y-78000000D03*
X146500000Y-78000000D03*
%TD*%
D16*
%TO.C,D6*%
X146100000Y-116100000D03*
X142100000Y-116100000D03*
%TD*%
D17*
%TO.C,C26*%
X187425000Y-111800000D03*
X188975000Y-111800000D03*
%TD*%
D18*
%TO.C,R12*%
X78450000Y-82212500D03*
X78450000Y-76287500D03*
%TD*%
D16*
%TO.C,D27*%
X142900000Y-132500000D03*
X138900000Y-132500000D03*
%TD*%
D19*
%TO.C,J3*%
X120542500Y-59450000D03*
D20*
X124502500Y-59450000D03*
%TD*%
D21*
%TO.C,R1*%
X126875000Y-141700000D03*
X128525000Y-141700000D03*
%TD*%
D22*
%TO.C,J13*%
X180600000Y-101020000D03*
D23*
X180600000Y-103560000D03*
X180600000Y-106100000D03*
X180600000Y-108640000D03*
%TD*%
D24*
%TO.C,D8*%
X79500000Y-102200000D03*
X79500000Y-98200000D03*
%TD*%
D25*
%TO.C,C32*%
X217987500Y-122800000D03*
X217987500Y-121250000D03*
%TD*%
D14*
%TO.C,Q8*%
X100840000Y-116806900D03*
X105412000Y-116806900D03*
D15*
X103126000Y-109885400D03*
%TD*%
D26*
%TO.C,D13*%
X139000000Y-58900000D03*
X143000000Y-58900000D03*
%TD*%
D27*
%TO.C,D26*%
X150900000Y-57500000D03*
X150900000Y-61500000D03*
%TD*%
D26*
%TO.C,D7*%
X109900000Y-58400000D03*
X113900000Y-58400000D03*
%TD*%
D16*
%TO.C,D22*%
X214500000Y-131500000D03*
X210500000Y-131500000D03*
%TD*%
D28*
%TO.C,R17*%
X163662500Y-66900000D03*
X157737500Y-66900000D03*
%TD*%
D21*
%TO.C,R6*%
X199850000Y-112200000D03*
X201500000Y-112200000D03*
%TD*%
D13*
%TO.C,C19*%
X156700000Y-72100000D03*
X166700000Y-72100000D03*
%TD*%
D10*
%TO.C,RL1*%
X92586250Y-101836250D03*
D11*
X92586250Y-86836250D03*
X92586250Y-81836250D03*
X92586250Y-76836250D03*
X85086250Y-76836250D03*
X85086250Y-81836250D03*
X85086250Y-86836250D03*
X85086250Y-101836250D03*
%TD*%
D29*
%TO.C,Q6*%
X125237500Y-122850000D03*
X125237500Y-120950000D03*
X123362500Y-121900000D03*
%TD*%
D12*
%TO.C,R39*%
X155125000Y-109100000D03*
X153475000Y-109100000D03*
%TD*%
D26*
%TO.C,D9*%
X99600000Y-62700000D03*
X103600000Y-62700000D03*
%TD*%
D30*
%TO.C,R15*%
X101937500Y-67300000D03*
X107862500Y-67300000D03*
%TD*%
D19*
%TO.C,J2*%
X129940000Y-59500000D03*
D20*
X133900000Y-59500000D03*
%TD*%
D31*
%TO.C,U3*%
X104910000Y-92500000D03*
X104910000Y-79800000D03*
X97290000Y-77260000D03*
X97290000Y-92500000D03*
%TD*%
D25*
%TO.C,C30*%
X180800000Y-119500000D03*
X180800000Y-117950000D03*
%TD*%
D32*
%TO.C,C3*%
X201900000Y-62532323D03*
D33*
X201900000Y-67532323D03*
%TD*%
D34*
%TO.C,C7*%
X141300000Y-123925000D03*
X141300000Y-125475000D03*
%TD*%
D35*
%TO.C,J9*%
X211400000Y-139300000D03*
D36*
X209800000Y-141300000D03*
D37*
X207300000Y-141300000D03*
X204800000Y-141300000D03*
X202300000Y-141300000D03*
%TD*%
D38*
%TO.C,D20*%
X225312500Y-117740000D03*
X223737500Y-117740000D03*
%TD*%
D36*
%TO.C,J11*%
X120900000Y-141300000D03*
D37*
X118400000Y-141300000D03*
X115900000Y-141300000D03*
X113400000Y-141300000D03*
X110900000Y-141300000D03*
%TD*%
D39*
%TO.C,R27*%
X127287500Y-121075000D03*
X127287500Y-122725000D03*
%TD*%
D40*
%TO.C,U7*%
X88495000Y-133775000D03*
X89765000Y-133775000D03*
X91035000Y-133775000D03*
X92305000Y-133775000D03*
X92305000Y-128825000D03*
X91035000Y-128825000D03*
X89765000Y-128825000D03*
X88495000Y-128825000D03*
%TD*%
D12*
%TO.C,R38*%
X221950000Y-133260000D03*
X220300000Y-133260000D03*
%TD*%
D41*
%TO.C,Q1*%
X85750000Y-121337500D03*
X87650000Y-121337500D03*
X86700000Y-119462500D03*
%TD*%
D16*
%TO.C,D15*%
X150300000Y-132500000D03*
X146300000Y-132500000D03*
%TD*%
D26*
%TO.C,D17*%
X99600000Y-57600000D03*
X103600000Y-57600000D03*
%TD*%
D42*
%TO.C,C35*%
X211862500Y-127000000D03*
X210312500Y-127000000D03*
%TD*%
D24*
%TO.C,D4*%
X190500000Y-74100000D03*
X190500000Y-70100000D03*
%TD*%
D25*
%TO.C,C31*%
X217987500Y-126100000D03*
X217987500Y-124550000D03*
%TD*%
D43*
%TO.C,J12*%
X219900000Y-90000000D03*
X219900000Y-111000000D03*
D44*
X212600000Y-90000000D03*
D45*
X212600000Y-94200000D03*
X212600000Y-98400000D03*
X212600000Y-102600000D03*
X212600000Y-106800000D03*
X212600000Y-111000000D03*
X207100000Y-90000000D03*
X207100000Y-94200000D03*
X207100000Y-98400000D03*
X207100000Y-102600000D03*
X207100000Y-106800000D03*
X207100000Y-111000000D03*
%TD*%
D46*
%TO.C,U9*%
X184580000Y-101600000D03*
D47*
X189660000Y-101600000D03*
X194740000Y-101600000D03*
X197280000Y-101600000D03*
X192200000Y-101600000D03*
X187120000Y-101600000D03*
%TD*%
D21*
%TO.C,R28*%
X91275000Y-121800000D03*
X92925000Y-121800000D03*
%TD*%
D12*
%TO.C,R7*%
X202325000Y-103200000D03*
X200675000Y-103200000D03*
%TD*%
D13*
%TO.C,C22*%
X161300000Y-85000000D03*
X151300000Y-85000000D03*
%TD*%
%TO.C,C21*%
X132000000Y-72100000D03*
X142000000Y-72100000D03*
%TD*%
D21*
%TO.C,R32*%
X113375000Y-121800000D03*
X115025000Y-121800000D03*
%TD*%
D19*
%TO.C,J1*%
X181542500Y-59450000D03*
D20*
X185502500Y-59450000D03*
%TD*%
D42*
%TO.C,C25*%
X181775000Y-123100000D03*
X180225000Y-123100000D03*
%TD*%
D48*
%TO.C,D5*%
X137712500Y-120700000D03*
X139287500Y-120700000D03*
%TD*%
D31*
%TO.C,U5*%
X130020000Y-92500000D03*
X130020000Y-79800000D03*
X122400000Y-77260000D03*
X122400000Y-92500000D03*
%TD*%
D21*
%TO.C,R20*%
X107675000Y-125200000D03*
X109325000Y-125200000D03*
%TD*%
D24*
%TO.C,D18*%
X127700000Y-109600000D03*
X127700000Y-105600000D03*
%TD*%
D16*
%TO.C,D29*%
X171200000Y-87600000D03*
X167200000Y-87600000D03*
%TD*%
D42*
%TO.C,C5*%
X196175000Y-62100000D03*
X194625000Y-62100000D03*
%TD*%
D10*
%TO.C,RL2*%
X117487500Y-101737500D03*
D11*
X117487500Y-86737500D03*
X117487500Y-81737500D03*
X117487500Y-76737500D03*
X109987500Y-76737500D03*
X109987500Y-81737500D03*
X109987500Y-86737500D03*
X109987500Y-101737500D03*
%TD*%
D12*
%TO.C,R31*%
X103925000Y-120100000D03*
X102275000Y-120100000D03*
%TD*%
D19*
%TO.C,J4*%
X90642500Y-59450000D03*
D20*
X94602500Y-59450000D03*
%TD*%
D21*
%TO.C,R3*%
X126875000Y-138500000D03*
X128525000Y-138500000D03*
%TD*%
D28*
%TO.C,R16*%
X152462500Y-67100000D03*
X146537500Y-67100000D03*
%TD*%
D35*
%TO.C,J8*%
X99200000Y-139300000D03*
D36*
X97600000Y-141300000D03*
D37*
X95100000Y-141300000D03*
X92600000Y-141300000D03*
X90100000Y-141300000D03*
%TD*%
D49*
%TO.C,C8*%
X138357500Y-116200000D03*
X133242500Y-116200000D03*
%TD*%
D12*
%TO.C,R9*%
X152825000Y-139800000D03*
X151175000Y-139800000D03*
%TD*%
D29*
%TO.C,Q5*%
X125350000Y-118200000D03*
X125350000Y-116300000D03*
X123475000Y-117250000D03*
%TD*%
D26*
%TO.C,D11*%
X109900000Y-62800000D03*
X113900000Y-62800000D03*
%TD*%
D12*
%TO.C,R42*%
X186225000Y-103900000D03*
X184575000Y-103900000D03*
%TD*%
D14*
%TO.C,Q7*%
X89952000Y-116806900D03*
X94524000Y-116806900D03*
D15*
X92238000Y-109885400D03*
%TD*%
D42*
%TO.C,C34*%
X213075000Y-119200000D03*
X211525000Y-119200000D03*
%TD*%
D16*
%TO.C,D24*%
X189100000Y-107900000D03*
X185100000Y-107900000D03*
%TD*%
D14*
%TO.C,Q2*%
X79064000Y-116806900D03*
X83636000Y-116806900D03*
D15*
X81350000Y-109885400D03*
%TD*%
D50*
%TO.C,R26*%
X129087500Y-122725000D03*
X129087500Y-121075000D03*
%TD*%
D38*
%TO.C,D21*%
X225212500Y-133300000D03*
X223637500Y-133300000D03*
%TD*%
D13*
%TO.C,C20*%
X179500000Y-72100000D03*
X169500000Y-72100000D03*
%TD*%
D41*
%TO.C,Q3*%
X107637500Y-121737500D03*
X109537500Y-121737500D03*
X108587500Y-119862500D03*
%TD*%
D50*
%TO.C,R24*%
X129300000Y-118125000D03*
X129300000Y-116475000D03*
%TD*%
D21*
%TO.C,R30*%
X102275000Y-121800000D03*
X103925000Y-121800000D03*
%TD*%
D26*
%TO.C,D10*%
X102170000Y-132250000D03*
X106170000Y-132250000D03*
%TD*%
D13*
%TO.C,C1*%
X190900000Y-58350000D03*
X190900000Y-63350000D03*
%TD*%
D51*
%TO.C,SW1*%
X169850001Y-111800000D03*
X169850001Y-119799999D03*
X165349999Y-111800000D03*
X165349999Y-119799999D03*
%TD*%
D21*
%TO.C,R5*%
X199850000Y-113800000D03*
X201500000Y-113800000D03*
%TD*%
D42*
%TO.C,C13*%
X100175000Y-128600000D03*
X98625000Y-128600000D03*
%TD*%
D21*
%TO.C,R11*%
X80550000Y-121800000D03*
X82200000Y-121800000D03*
%TD*%
D26*
%TO.C,D12*%
X139100000Y-63300000D03*
X143100000Y-63300000D03*
%TD*%
D52*
%TO.C,U8*%
X186737500Y-118950000D03*
X186737500Y-119450000D03*
X186737500Y-119950000D03*
X186737500Y-120450000D03*
X186737500Y-120950000D03*
X186737500Y-121450000D03*
X186737500Y-121950000D03*
X186737500Y-122450000D03*
X186737500Y-122950000D03*
X186737500Y-123450000D03*
X186737500Y-123950000D03*
X186737500Y-124450000D03*
D53*
X188150000Y-125862500D03*
X188650000Y-125862500D03*
X189150000Y-125862500D03*
X189650000Y-125862500D03*
X190150000Y-125862500D03*
X190650000Y-125862500D03*
X191150000Y-125862500D03*
X191650000Y-125862500D03*
X192150000Y-125862500D03*
X192650000Y-125862500D03*
X193150000Y-125862500D03*
X193650000Y-125862500D03*
D52*
X195062500Y-124450000D03*
X195062500Y-123950000D03*
X195062500Y-123450000D03*
X195062500Y-122950000D03*
X195062500Y-122450000D03*
X195062500Y-121950000D03*
X195062500Y-121450000D03*
X195062500Y-120950000D03*
X195062500Y-120450000D03*
X195062500Y-119950000D03*
X195062500Y-119450000D03*
X195062500Y-118950000D03*
D53*
X193650000Y-117537500D03*
X193150000Y-117537500D03*
X192650000Y-117537500D03*
X192150000Y-117537500D03*
X191650000Y-117537500D03*
X191150000Y-117537500D03*
X190650000Y-117537500D03*
X190150000Y-117537500D03*
X189650000Y-117537500D03*
X189150000Y-117537500D03*
X188650000Y-117537500D03*
X188150000Y-117537500D03*
%TD*%
D22*
%TO.C,J6*%
X200800000Y-118975000D03*
D23*
X200800000Y-116435000D03*
%TD*%
D28*
%TO.C,R18*%
X177962500Y-67000000D03*
X172037500Y-67000000D03*
%TD*%
D19*
%TO.C,J5*%
X156540000Y-59450000D03*
D20*
X160500000Y-59450000D03*
X164460000Y-59450000D03*
X168420000Y-59450000D03*
%TD*%
D12*
%TO.C,R23*%
X98825000Y-123600000D03*
X97175000Y-123600000D03*
%TD*%
D35*
%TO.C,J10*%
X225100000Y-130900000D03*
D54*
X223100000Y-129300000D03*
D55*
X223100000Y-126800000D03*
X223100000Y-124300000D03*
X223100000Y-121800000D03*
%TD*%
D41*
%TO.C,Q4*%
X97100000Y-121600000D03*
X99000000Y-121600000D03*
X98050000Y-119725000D03*
%TD*%
D16*
%TO.C,D23*%
X196600000Y-108000000D03*
X192600000Y-108000000D03*
%TD*%
D56*
%TO.C,Y1*%
X176700000Y-113400000D03*
X176700000Y-118300000D03*
%TD*%
D34*
%TO.C,C24*%
X193700000Y-129025000D03*
X193700000Y-130575000D03*
%TD*%
D57*
%TO.C,L1*%
X195350000Y-77000000D03*
X205250000Y-77000000D03*
%TD*%
D30*
%TO.C,R19*%
X163837500Y-83100000D03*
X169762500Y-83100000D03*
%TD*%
D25*
%TO.C,C27*%
X197700000Y-118650000D03*
X197700000Y-117100000D03*
%TD*%
D58*
%TO.C,U1*%
X212425000Y-68800000D03*
X212425000Y-70500000D03*
X212425000Y-72200000D03*
D59*
X221575000Y-72200000D03*
D58*
X212425000Y-73900000D03*
X212425000Y-75600000D03*
%TD*%
D22*
%TO.C,J14*%
X206300000Y-121280000D03*
D23*
X206300000Y-123820000D03*
X206300000Y-126360000D03*
X206300000Y-128900000D03*
X206300000Y-131440000D03*
X206300000Y-133980000D03*
%TD*%
D13*
%TO.C,C23*%
X154300000Y-72200000D03*
X144300000Y-72200000D03*
%TD*%
D21*
%TO.C,R2*%
X126875000Y-140100000D03*
X128525000Y-140100000D03*
%TD*%
D22*
%TO.C,J16*%
X146190000Y-112000000D03*
D23*
X148730000Y-112000000D03*
X151270000Y-112000000D03*
X153810000Y-112000000D03*
%TD*%
D12*
%TO.C,R10*%
X82125000Y-120100000D03*
X80475000Y-120100000D03*
%TD*%
D60*
%TO.C,U10*%
X215762500Y-125475000D03*
X215762500Y-124825000D03*
X215762500Y-124175000D03*
X215762500Y-123525000D03*
X215762500Y-122875000D03*
X215762500Y-122225000D03*
X215762500Y-121575000D03*
X215762500Y-120925000D03*
X210037500Y-120925000D03*
X210037500Y-121575000D03*
X210037500Y-122225000D03*
X210037500Y-122875000D03*
X210037500Y-123525000D03*
X210037500Y-124175000D03*
X210037500Y-124825000D03*
X210037500Y-125475000D03*
%TD*%
D61*
%TO.C,U4*%
X96030000Y-132400000D03*
D62*
X97300000Y-132400000D03*
X98570000Y-132400000D03*
%TD*%
D63*
%TO.C,J15*%
X159320000Y-139440000D03*
D23*
X159320000Y-136900000D03*
X161860000Y-139440000D03*
X161860000Y-136900000D03*
X164400000Y-139440000D03*
X164400000Y-136900000D03*
X166940000Y-139440000D03*
X166940000Y-136900000D03*
X169480000Y-139440000D03*
X169480000Y-136900000D03*
%TD*%
D21*
%TO.C,R4*%
X126875000Y-136900000D03*
X128525000Y-136900000D03*
%TD*%
D12*
%TO.C,R41*%
X197300000Y-103800000D03*
X195650000Y-103800000D03*
%TD*%
D42*
%TO.C,C33*%
X215062500Y-127000000D03*
X213512500Y-127000000D03*
%TD*%
D24*
%TO.C,D14*%
X103200000Y-102200000D03*
X103200000Y-98200000D03*
%TD*%
D13*
%TO.C,C10*%
X83100000Y-72100000D03*
X93100000Y-72100000D03*
%TD*%
D24*
%TO.C,D2*%
X183900000Y-74200000D03*
X183900000Y-70200000D03*
%TD*%
D12*
%TO.C,R8*%
X139325000Y-118900000D03*
X137675000Y-118900000D03*
%TD*%
D21*
%TO.C,R22*%
X97175000Y-125200000D03*
X98825000Y-125200000D03*
%TD*%
D49*
%TO.C,C6*%
X138457500Y-124400000D03*
X133342500Y-124400000D03*
%TD*%
D26*
%TO.C,D1*%
X206900000Y-116200000D03*
X210900000Y-116200000D03*
%TD*%
D13*
%TO.C,C12*%
X105300000Y-72200000D03*
X95300000Y-72200000D03*
%TD*%
D12*
%TO.C,R44*%
X185625000Y-132400000D03*
X183975000Y-132400000D03*
%TD*%
D50*
%TO.C,R43*%
X135500000Y-143125000D03*
X135500000Y-141475000D03*
%TD*%
D42*
%TO.C,C28*%
X166700000Y-121900000D03*
X165150000Y-121900000D03*
%TD*%
D12*
%TO.C,R45*%
X185625000Y-130800000D03*
X183975000Y-130800000D03*
%TD*%
D64*
%TO.C,L2*%
X135925000Y-127700000D03*
X139075000Y-127700000D03*
%TD*%
D17*
%TO.C,C15*%
X95350000Y-128600000D03*
X96900000Y-128600000D03*
%TD*%
D32*
%TO.C,C2*%
X212600000Y-58282323D03*
D33*
X212600000Y-63282323D03*
%TD*%
D12*
%TO.C,R34*%
X221950000Y-117700000D03*
X220300000Y-117700000D03*
%TD*%
D65*
%TO.C,U2*%
X150650000Y-124000000D03*
X150650000Y-121700000D03*
D66*
X144350000Y-121700000D03*
D65*
X150650000Y-119400000D03*
%TD*%
D13*
%TO.C,C18*%
X168800000Y-78000000D03*
X158800000Y-78000000D03*
%TD*%
D21*
%TO.C,R13*%
X85775000Y-125200000D03*
X87425000Y-125200000D03*
%TD*%
D12*
%TO.C,R21*%
X109325000Y-123600000D03*
X107675000Y-123600000D03*
%TD*%
D34*
%TO.C,C29*%
X180800000Y-111775000D03*
X180800000Y-113325000D03*
%TD*%
D16*
%TO.C,D3*%
X199300000Y-57700000D03*
X195300000Y-57700000D03*
%TD*%
D12*
%TO.C,R14*%
X87425000Y-123500000D03*
X85775000Y-123500000D03*
%TD*%
D27*
%TO.C,D28*%
X174600000Y-57200000D03*
X174600000Y-61200000D03*
%TD*%
D39*
%TO.C,R37*%
X180800000Y-114825000D03*
X180800000Y-116475000D03*
%TD*%
D13*
%TO.C,C17*%
X119700000Y-72200000D03*
X129700000Y-72200000D03*
%TD*%
D42*
%TO.C,C4*%
X196125000Y-60200000D03*
X194575000Y-60200000D03*
%TD*%
D12*
%TO.C,R36*%
X192325000Y-111800000D03*
X190675000Y-111800000D03*
%TD*%
D21*
%TO.C,R35*%
X168475000Y-122000000D03*
X170125000Y-122000000D03*
%TD*%
D39*
%TO.C,R25*%
X127600000Y-116475000D03*
X127600000Y-118125000D03*
%TD*%
D22*
%TO.C,J17*%
X151080000Y-142500000D03*
D23*
X148540000Y-142500000D03*
X146000000Y-142500000D03*
X143460000Y-142500000D03*
X140920000Y-142500000D03*
X138380000Y-142500000D03*
%TD*%
D21*
%TO.C,R40*%
X150375000Y-109100000D03*
X152025000Y-109100000D03*
%TD*%
D12*
%TO.C,R29*%
X92925000Y-120100000D03*
X91275000Y-120100000D03*
%TD*%
D64*
%TO.C,L3*%
X132625000Y-120700000D03*
X135775000Y-120700000D03*
%TD*%
D24*
%TO.C,D16*%
X98800000Y-102200000D03*
X98800000Y-98200000D03*
%TD*%
D16*
%TO.C,D25*%
X214500000Y-135200000D03*
X210500000Y-135200000D03*
%TD*%
D25*
%TO.C,C9*%
X141300000Y-122175000D03*
X141300000Y-120625000D03*
%TD*%
D24*
%TO.C,D19*%
X123500000Y-109600000D03*
X123500000Y-105600000D03*
%TD*%
D35*
%TO.C,J7*%
X122000000Y-131600000D03*
D36*
X120400000Y-133600000D03*
D37*
X117900000Y-133600000D03*
X115400000Y-133600000D03*
X112900000Y-133600000D03*
%TD*%
D40*
%TO.C,U6*%
X82395000Y-133875000D03*
X83665000Y-133875000D03*
X84935000Y-133875000D03*
X86205000Y-133875000D03*
X86205000Y-128925000D03*
X84935000Y-128925000D03*
X83665000Y-128925000D03*
X82395000Y-128925000D03*
%TD*%
D67*
X75850000Y-55100000D02*
X227250000Y-55100000D01*
X227250000Y-144600000D01*
X75850000Y-144600000D01*
X75850000Y-55100000D01*
M02*
