%TF.GenerationSoftware,KiCad,Pcbnew,9.0.2*%
%TF.CreationDate,2025-10-22T08:39:05+07:00*%
%TF.ProjectId,MassageChair_HW_01_update,4d617373-6167-4654-9368-6169725f4857,rev?*%
%TF.SameCoordinates,Original*%
%TF.FileFunction,Paste,Top*%
%TF.FilePolarity,Positive*%
%FSLAX46Y46*%
G04 Gerber Fmt 4.6, Leading zero omitted, Abs format (unit mm)*
G04 Created by KiCad (PCBNEW 9.0.2) date 2025-10-22 08:39:05*
%MOMM*%
%LPD*%
G01*
G04 APERTURE LIST*
G04 Aperture macros list*
%AMRoundRect*
0 Rectangle with rounded corners*
0 $1 Rounding radius*
0 $2 $3 $4 $5 $6 $7 $8 $9 X,Y pos of 4 corners*
0 Add a 4 corners polygon primitive as box body*
4,1,4,$2,$3,$4,$5,$6,$7,$8,$9,$2,$3,0*
0 Add four circle primitives for the rounded corners*
1,1,$1+$1,$2,$3*
1,1,$1+$1,$4,$5*
1,1,$1+$1,$6,$7*
1,1,$1+$1,$8,$9*
0 Add four rect primitives between the rounded corners*
20,1,$1+$1,$2,$3,$4,$5,0*
20,1,$1+$1,$4,$5,$6,$7,0*
20,1,$1+$1,$6,$7,$8,$9,0*
20,1,$1+$1,$8,$9,$2,$3,0*%
G04 Aperture macros list end*
%ADD10RoundRect,0.200000X0.200000X0.275000X-0.200000X0.275000X-0.200000X-0.275000X0.200000X-0.275000X0*%
%ADD11R,0.939800X2.489200*%
%ADD12R,5.511800X5.918200*%
%ADD13RoundRect,0.250000X1.000000X0.650000X-1.000000X0.650000X-1.000000X-0.650000X1.000000X-0.650000X0*%
%ADD14RoundRect,0.225000X-0.225000X-0.250000X0.225000X-0.250000X0.225000X0.250000X-0.225000X0.250000X0*%
%ADD15RoundRect,0.250000X1.425000X-0.362500X1.425000X0.362500X-1.425000X0.362500X-1.425000X-0.362500X0*%
%ADD16RoundRect,0.200000X-0.200000X-0.275000X0.200000X-0.275000X0.200000X0.275000X-0.200000X0.275000X0*%
%ADD17RoundRect,0.250000X0.650000X-1.000000X0.650000X1.000000X-0.650000X1.000000X-0.650000X-1.000000X0*%
%ADD18RoundRect,0.225000X0.250000X-0.225000X0.250000X0.225000X-0.250000X0.225000X-0.250000X-0.225000X0*%
%ADD19RoundRect,0.250000X-1.000000X-0.650000X1.000000X-0.650000X1.000000X0.650000X-1.000000X0.650000X0*%
%ADD20RoundRect,0.250000X-0.650000X1.000000X-0.650000X-1.000000X0.650000X-1.000000X0.650000X1.000000X0*%
%ADD21RoundRect,0.250000X0.362500X1.425000X-0.362500X1.425000X-0.362500X-1.425000X0.362500X-1.425000X0*%
%ADD22RoundRect,0.150000X0.587500X0.150000X-0.587500X0.150000X-0.587500X-0.150000X0.587500X-0.150000X0*%
%ADD23RoundRect,0.250000X-0.362500X-1.425000X0.362500X-1.425000X0.362500X1.425000X-0.362500X1.425000X0*%
%ADD24RoundRect,0.225000X-0.250000X0.225000X-0.250000X-0.225000X0.250000X-0.225000X0.250000X0.225000X0*%
%ADD25RoundRect,0.218750X0.218750X0.256250X-0.218750X0.256250X-0.218750X-0.256250X0.218750X-0.256250X0*%
%ADD26RoundRect,0.200000X-0.275000X0.200000X-0.275000X-0.200000X0.275000X-0.200000X0.275000X0.200000X0*%
%ADD27RoundRect,0.150000X0.150000X-0.825000X0.150000X0.825000X-0.150000X0.825000X-0.150000X-0.825000X0*%
%ADD28RoundRect,0.150000X0.150000X-0.587500X0.150000X0.587500X-0.150000X0.587500X-0.150000X-0.587500X0*%
%ADD29RoundRect,0.225000X0.225000X0.250000X-0.225000X0.250000X-0.225000X-0.250000X0.225000X-0.250000X0*%
%ADD30RoundRect,0.218750X-0.218750X-0.256250X0.218750X-0.256250X0.218750X0.256250X-0.218750X0.256250X0*%
%ADD31RoundRect,0.250001X0.872499X0.944999X-0.872499X0.944999X-0.872499X-0.944999X0.872499X-0.944999X0*%
%ADD32RoundRect,0.200000X0.275000X-0.200000X0.275000X0.200000X-0.275000X0.200000X-0.275000X-0.200000X0*%
%ADD33R,1.400000X1.600000*%
%ADD34RoundRect,0.075000X-0.662500X-0.075000X0.662500X-0.075000X0.662500X0.075000X-0.662500X0.075000X0*%
%ADD35RoundRect,0.075000X-0.075000X-0.662500X0.075000X-0.662500X0.075000X0.662500X-0.075000X0.662500X0*%
%ADD36RoundRect,0.250000X-1.200000X-2.450000X1.200000X-2.450000X1.200000X2.450000X-1.200000X2.450000X0*%
%ADD37RoundRect,0.250000X-2.025000X-2.375000X2.025000X-2.375000X2.025000X2.375000X-2.025000X2.375000X0*%
%ADD38RoundRect,0.250000X-2.050000X-0.300000X2.050000X-0.300000X2.050000X0.300000X-2.050000X0.300000X0*%
%ADD39RoundRect,0.100000X0.637500X0.100000X-0.637500X0.100000X-0.637500X-0.100000X0.637500X-0.100000X0*%
%ADD40RoundRect,0.250000X-0.275000X-0.700000X0.275000X-0.700000X0.275000X0.700000X-0.275000X0.700000X0*%
%ADD41RoundRect,0.375000X0.625000X0.375000X-0.625000X0.375000X-0.625000X-0.375000X0.625000X-0.375000X0*%
%ADD42RoundRect,0.500000X0.500000X1.400000X-0.500000X1.400000X-0.500000X-1.400000X0.500000X-1.400000X0*%
%TA.AperFunction,Profile*%
%ADD43C,0.050000*%
%TD*%
G04 APERTURE END LIST*
D10*
%TO.C,R33*%
X115025000Y-120100000D03*
X113375000Y-120100000D03*
%TD*%
D11*
%TO.C,Q9*%
X111728000Y-116806900D03*
X116300000Y-116806900D03*
D12*
X114014000Y-109885400D03*
%TD*%
D13*
%TO.C,D6*%
X146100000Y-116100000D03*
X142100000Y-116100000D03*
%TD*%
D14*
%TO.C,C26*%
X187425000Y-111800000D03*
X188975000Y-111800000D03*
%TD*%
D15*
%TO.C,R12*%
X78450000Y-82212500D03*
X78450000Y-76287500D03*
%TD*%
D13*
%TO.C,D27*%
X142900000Y-132500000D03*
X138900000Y-132500000D03*
%TD*%
D16*
%TO.C,R1*%
X126875000Y-141700000D03*
X128525000Y-141700000D03*
%TD*%
D17*
%TO.C,D8*%
X79500000Y-102200000D03*
X79500000Y-98200000D03*
%TD*%
D18*
%TO.C,C32*%
X217987500Y-122800000D03*
X217987500Y-121250000D03*
%TD*%
D11*
%TO.C,Q8*%
X100840000Y-116806900D03*
X105412000Y-116806900D03*
D12*
X103126000Y-109885400D03*
%TD*%
D19*
%TO.C,D13*%
X139000000Y-58900000D03*
X143000000Y-58900000D03*
%TD*%
D20*
%TO.C,D26*%
X150900000Y-57500000D03*
X150900000Y-61500000D03*
%TD*%
D19*
%TO.C,D7*%
X109900000Y-58400000D03*
X113900000Y-58400000D03*
%TD*%
D13*
%TO.C,D22*%
X214500000Y-131500000D03*
X210500000Y-131500000D03*
%TD*%
D21*
%TO.C,R17*%
X163662500Y-66900000D03*
X157737500Y-66900000D03*
%TD*%
D16*
%TO.C,R6*%
X199850000Y-112200000D03*
X201500000Y-112200000D03*
%TD*%
D22*
%TO.C,Q6*%
X125237500Y-122850000D03*
X125237500Y-120950000D03*
X123362500Y-121900000D03*
%TD*%
D10*
%TO.C,R39*%
X155125000Y-109100000D03*
X153475000Y-109100000D03*
%TD*%
D19*
%TO.C,D9*%
X99600000Y-62700000D03*
X103600000Y-62700000D03*
%TD*%
D23*
%TO.C,R15*%
X101937500Y-67300000D03*
X107862500Y-67300000D03*
%TD*%
D18*
%TO.C,C30*%
X180800000Y-119500000D03*
X180800000Y-117950000D03*
%TD*%
D24*
%TO.C,C7*%
X141300000Y-123925000D03*
X141300000Y-125475000D03*
%TD*%
D25*
%TO.C,D20*%
X225312500Y-117740000D03*
X223737500Y-117740000D03*
%TD*%
D26*
%TO.C,R27*%
X127287500Y-121075000D03*
X127287500Y-122725000D03*
%TD*%
D27*
%TO.C,U7*%
X88495000Y-133775000D03*
X89765000Y-133775000D03*
X91035000Y-133775000D03*
X92305000Y-133775000D03*
X92305000Y-128825000D03*
X91035000Y-128825000D03*
X89765000Y-128825000D03*
X88495000Y-128825000D03*
%TD*%
D10*
%TO.C,R38*%
X221950000Y-133260000D03*
X220300000Y-133260000D03*
%TD*%
D28*
%TO.C,Q1*%
X85750000Y-121337500D03*
X87650000Y-121337500D03*
X86700000Y-119462500D03*
%TD*%
D13*
%TO.C,D15*%
X150300000Y-132500000D03*
X146300000Y-132500000D03*
%TD*%
D19*
%TO.C,D17*%
X99600000Y-57600000D03*
X103600000Y-57600000D03*
%TD*%
D29*
%TO.C,C35*%
X211862500Y-127000000D03*
X210312500Y-127000000D03*
%TD*%
D17*
%TO.C,D4*%
X190500000Y-74100000D03*
X190500000Y-70100000D03*
%TD*%
D18*
%TO.C,C31*%
X217987500Y-126100000D03*
X217987500Y-124550000D03*
%TD*%
D16*
%TO.C,R28*%
X91275000Y-121800000D03*
X92925000Y-121800000D03*
%TD*%
D10*
%TO.C,R7*%
X202325000Y-103200000D03*
X200675000Y-103200000D03*
%TD*%
D16*
%TO.C,R32*%
X113375000Y-121800000D03*
X115025000Y-121800000D03*
%TD*%
D29*
%TO.C,C25*%
X181775000Y-123100000D03*
X180225000Y-123100000D03*
%TD*%
D30*
%TO.C,D5*%
X137712500Y-120700000D03*
X139287500Y-120700000D03*
%TD*%
D16*
%TO.C,R20*%
X107675000Y-125200000D03*
X109325000Y-125200000D03*
%TD*%
D17*
%TO.C,D18*%
X127700000Y-109600000D03*
X127700000Y-105600000D03*
%TD*%
D13*
%TO.C,D29*%
X171200000Y-87600000D03*
X167200000Y-87600000D03*
%TD*%
D29*
%TO.C,C5*%
X196175000Y-62100000D03*
X194625000Y-62100000D03*
%TD*%
D10*
%TO.C,R31*%
X103925000Y-120100000D03*
X102275000Y-120100000D03*
%TD*%
D16*
%TO.C,R3*%
X126875000Y-138500000D03*
X128525000Y-138500000D03*
%TD*%
D21*
%TO.C,R16*%
X152462500Y-67100000D03*
X146537500Y-67100000D03*
%TD*%
D31*
%TO.C,C8*%
X138357500Y-116200000D03*
X133242500Y-116200000D03*
%TD*%
D10*
%TO.C,R9*%
X152825000Y-139800000D03*
X151175000Y-139800000D03*
%TD*%
D22*
%TO.C,Q5*%
X125350000Y-118200000D03*
X125350000Y-116300000D03*
X123475000Y-117250000D03*
%TD*%
D19*
%TO.C,D11*%
X109900000Y-62800000D03*
X113900000Y-62800000D03*
%TD*%
D10*
%TO.C,R42*%
X186225000Y-103900000D03*
X184575000Y-103900000D03*
%TD*%
D11*
%TO.C,Q7*%
X89952000Y-116806900D03*
X94524000Y-116806900D03*
D12*
X92238000Y-109885400D03*
%TD*%
D29*
%TO.C,C34*%
X213075000Y-119200000D03*
X211525000Y-119200000D03*
%TD*%
D13*
%TO.C,D24*%
X189100000Y-107900000D03*
X185100000Y-107900000D03*
%TD*%
D11*
%TO.C,Q2*%
X79064000Y-116806900D03*
X83636000Y-116806900D03*
D12*
X81350000Y-109885400D03*
%TD*%
D32*
%TO.C,R26*%
X129087500Y-122725000D03*
X129087500Y-121075000D03*
%TD*%
D25*
%TO.C,D21*%
X225212500Y-133300000D03*
X223637500Y-133300000D03*
%TD*%
D28*
%TO.C,Q3*%
X107637500Y-121737500D03*
X109537500Y-121737500D03*
X108587500Y-119862500D03*
%TD*%
D32*
%TO.C,R24*%
X129300000Y-118125000D03*
X129300000Y-116475000D03*
%TD*%
D16*
%TO.C,R30*%
X102275000Y-121800000D03*
X103925000Y-121800000D03*
%TD*%
D19*
%TO.C,D10*%
X102170000Y-132250000D03*
X106170000Y-132250000D03*
%TD*%
D33*
%TO.C,SW1*%
X169850001Y-111800000D03*
X169850001Y-119799999D03*
X165349999Y-111800000D03*
X165349999Y-119799999D03*
%TD*%
D16*
%TO.C,R5*%
X199850000Y-113800000D03*
X201500000Y-113800000D03*
%TD*%
D29*
%TO.C,C13*%
X100175000Y-128600000D03*
X98625000Y-128600000D03*
%TD*%
D16*
%TO.C,R11*%
X80550000Y-121800000D03*
X82200000Y-121800000D03*
%TD*%
D19*
%TO.C,D12*%
X139100000Y-63300000D03*
X143100000Y-63300000D03*
%TD*%
D34*
%TO.C,U8*%
X186737500Y-118950000D03*
X186737500Y-119450000D03*
X186737500Y-119950000D03*
X186737500Y-120450000D03*
X186737500Y-120950000D03*
X186737500Y-121450000D03*
X186737500Y-121950000D03*
X186737500Y-122450000D03*
X186737500Y-122950000D03*
X186737500Y-123450000D03*
X186737500Y-123950000D03*
X186737500Y-124450000D03*
D35*
X188150000Y-125862500D03*
X188650000Y-125862500D03*
X189150000Y-125862500D03*
X189650000Y-125862500D03*
X190150000Y-125862500D03*
X190650000Y-125862500D03*
X191150000Y-125862500D03*
X191650000Y-125862500D03*
X192150000Y-125862500D03*
X192650000Y-125862500D03*
X193150000Y-125862500D03*
X193650000Y-125862500D03*
D34*
X195062500Y-124450000D03*
X195062500Y-123950000D03*
X195062500Y-123450000D03*
X195062500Y-122950000D03*
X195062500Y-122450000D03*
X195062500Y-121950000D03*
X195062500Y-121450000D03*
X195062500Y-120950000D03*
X195062500Y-120450000D03*
X195062500Y-119950000D03*
X195062500Y-119450000D03*
X195062500Y-118950000D03*
D35*
X193650000Y-117537500D03*
X193150000Y-117537500D03*
X192650000Y-117537500D03*
X192150000Y-117537500D03*
X191650000Y-117537500D03*
X191150000Y-117537500D03*
X190650000Y-117537500D03*
X190150000Y-117537500D03*
X189650000Y-117537500D03*
X189150000Y-117537500D03*
X188650000Y-117537500D03*
X188150000Y-117537500D03*
%TD*%
D21*
%TO.C,R18*%
X177962500Y-67000000D03*
X172037500Y-67000000D03*
%TD*%
D10*
%TO.C,R23*%
X98825000Y-123600000D03*
X97175000Y-123600000D03*
%TD*%
D28*
%TO.C,Q4*%
X97100000Y-121600000D03*
X99000000Y-121600000D03*
X98050000Y-119725000D03*
%TD*%
D13*
%TO.C,D23*%
X196600000Y-108000000D03*
X192600000Y-108000000D03*
%TD*%
D24*
%TO.C,C24*%
X193700000Y-129025000D03*
X193700000Y-130575000D03*
%TD*%
D36*
%TO.C,L1*%
X195350000Y-77000000D03*
X205250000Y-77000000D03*
%TD*%
D23*
%TO.C,R19*%
X163837500Y-83100000D03*
X169762500Y-83100000D03*
%TD*%
D18*
%TO.C,C27*%
X197700000Y-118650000D03*
X197700000Y-117100000D03*
%TD*%
D37*
%TO.C,U1*%
X219150000Y-69425000D03*
X219150000Y-74975000D03*
X224000000Y-69425000D03*
X224000000Y-74975000D03*
D38*
X212425000Y-68800000D03*
X212425000Y-70500000D03*
X212425000Y-72200000D03*
X212425000Y-73900000D03*
X212425000Y-75600000D03*
%TD*%
D16*
%TO.C,R2*%
X126875000Y-140100000D03*
X128525000Y-140100000D03*
%TD*%
D10*
%TO.C,R10*%
X82125000Y-120100000D03*
X80475000Y-120100000D03*
%TD*%
D39*
%TO.C,U10*%
X215762500Y-125475000D03*
X215762500Y-124825000D03*
X215762500Y-124175000D03*
X215762500Y-123525000D03*
X215762500Y-122875000D03*
X215762500Y-122225000D03*
X215762500Y-121575000D03*
X215762500Y-120925000D03*
X210037500Y-120925000D03*
X210037500Y-121575000D03*
X210037500Y-122225000D03*
X210037500Y-122875000D03*
X210037500Y-123525000D03*
X210037500Y-124175000D03*
X210037500Y-124825000D03*
X210037500Y-125475000D03*
%TD*%
D16*
%TO.C,R4*%
X126875000Y-136900000D03*
X128525000Y-136900000D03*
%TD*%
D10*
%TO.C,R41*%
X197300000Y-103800000D03*
X195650000Y-103800000D03*
%TD*%
D29*
%TO.C,C33*%
X215062500Y-127000000D03*
X213512500Y-127000000D03*
%TD*%
D17*
%TO.C,D14*%
X103200000Y-102200000D03*
X103200000Y-98200000D03*
%TD*%
%TO.C,D2*%
X183900000Y-74200000D03*
X183900000Y-70200000D03*
%TD*%
D10*
%TO.C,R8*%
X139325000Y-118900000D03*
X137675000Y-118900000D03*
%TD*%
D16*
%TO.C,R22*%
X97175000Y-125200000D03*
X98825000Y-125200000D03*
%TD*%
D31*
%TO.C,C6*%
X138457500Y-124400000D03*
X133342500Y-124400000D03*
%TD*%
D19*
%TO.C,D1*%
X206900000Y-116200000D03*
X210900000Y-116200000D03*
%TD*%
D10*
%TO.C,R44*%
X185625000Y-132400000D03*
X183975000Y-132400000D03*
%TD*%
D32*
%TO.C,R43*%
X135500000Y-143125000D03*
X135500000Y-141475000D03*
%TD*%
D29*
%TO.C,C28*%
X166700000Y-121900000D03*
X165150000Y-121900000D03*
%TD*%
D10*
%TO.C,R45*%
X185625000Y-130800000D03*
X183975000Y-130800000D03*
%TD*%
D40*
%TO.C,L2*%
X135925000Y-127700000D03*
X139075000Y-127700000D03*
%TD*%
D14*
%TO.C,C15*%
X95350000Y-128600000D03*
X96900000Y-128600000D03*
%TD*%
D10*
%TO.C,R34*%
X221950000Y-117700000D03*
X220300000Y-117700000D03*
%TD*%
D41*
%TO.C,U2*%
X150650000Y-124000000D03*
X150650000Y-121700000D03*
D42*
X144350000Y-121700000D03*
D41*
X150650000Y-119400000D03*
%TD*%
D16*
%TO.C,R13*%
X85775000Y-125200000D03*
X87425000Y-125200000D03*
%TD*%
D10*
%TO.C,R21*%
X109325000Y-123600000D03*
X107675000Y-123600000D03*
%TD*%
D24*
%TO.C,C29*%
X180800000Y-111775000D03*
X180800000Y-113325000D03*
%TD*%
D13*
%TO.C,D3*%
X199300000Y-57700000D03*
X195300000Y-57700000D03*
%TD*%
D10*
%TO.C,R14*%
X87425000Y-123500000D03*
X85775000Y-123500000D03*
%TD*%
D20*
%TO.C,D28*%
X174600000Y-57200000D03*
X174600000Y-61200000D03*
%TD*%
D26*
%TO.C,R37*%
X180800000Y-114825000D03*
X180800000Y-116475000D03*
%TD*%
D29*
%TO.C,C4*%
X196125000Y-60200000D03*
X194575000Y-60200000D03*
%TD*%
D10*
%TO.C,R36*%
X192325000Y-111800000D03*
X190675000Y-111800000D03*
%TD*%
D16*
%TO.C,R35*%
X168475000Y-122000000D03*
X170125000Y-122000000D03*
%TD*%
D26*
%TO.C,R25*%
X127600000Y-116475000D03*
X127600000Y-118125000D03*
%TD*%
D16*
%TO.C,R40*%
X150375000Y-109100000D03*
X152025000Y-109100000D03*
%TD*%
D10*
%TO.C,R29*%
X92925000Y-120100000D03*
X91275000Y-120100000D03*
%TD*%
D40*
%TO.C,L3*%
X132625000Y-120700000D03*
X135775000Y-120700000D03*
%TD*%
D17*
%TO.C,D16*%
X98800000Y-102200000D03*
X98800000Y-98200000D03*
%TD*%
D13*
%TO.C,D25*%
X214500000Y-135200000D03*
X210500000Y-135200000D03*
%TD*%
D18*
%TO.C,C9*%
X141300000Y-122175000D03*
X141300000Y-120625000D03*
%TD*%
D17*
%TO.C,D19*%
X123500000Y-109600000D03*
X123500000Y-105600000D03*
%TD*%
D27*
%TO.C,U6*%
X82395000Y-133875000D03*
X83665000Y-133875000D03*
X84935000Y-133875000D03*
X86205000Y-133875000D03*
X86205000Y-128925000D03*
X84935000Y-128925000D03*
X83665000Y-128925000D03*
X82395000Y-128925000D03*
%TD*%
D43*
X75850000Y-55100000D02*
X227250000Y-55100000D01*
X227250000Y-144600000D01*
X75850000Y-144600000D01*
X75850000Y-55100000D01*
M02*
